<?xml version="1.0" encoding="UTF-8"?>
<svg id="Calque_2" data-name="Calque 2" xmlns="http://www.w3.org/2000/svg" viewBox="0 0 93.9 93.92">
  <defs>
    <style>
      .cls-1 {
        fill: #1d1d1b;
        font-family: NeueMontreal-Regular, 'Neue Montreal';
        font-size: 12px;
      }
    </style>
  </defs>
  <g id="Calque_1-2" data-name="Calque 1">
    <text class="cls-1" transform="translate(25.22 17.37) rotate(-34.43)"><tspan x="0" y="0"> </tspan></text>
    <text class="cls-1" transform="translate(32.25 12.97) rotate(-15.59)"><tspan x="0" y="0">M</tspan></text>
    <text class="cls-1" transform="translate(47.6 10.09) rotate(7.02)"><tspan x="0" y="0">A</tspan></text>
    <text class="cls-1" transform="translate(59.87 12.44) rotate(26.29)"><tspan x="0" y="0">T</tspan></text>
    <text class="cls-1" transform="translate(71.14 19.1) rotate(47.48)"><tspan x="0" y="0">H</tspan></text>
    <text class="cls-1" transform="translate(79.68 30.37) rotate(65.24)"><tspan x="0" y="0">I</tspan></text>
    <text class="cls-1" transform="translate(82.8 38.42) rotate(82.48)"><tspan x="0" y="0">E</tspan></text>
    <text class="cls-1" transform="translate(83.53 51.63) rotate(103.36)"><tspan x="0" y="0">U</tspan></text>
    <text class="cls-1" transform="translate(79.11 64.62) rotate(120.68)"><tspan x="0" y="0"> </tspan></text>
    <text class="cls-1" transform="translate(74.44 71.51) rotate(137.56)"><tspan x="0" y="0">S</tspan></text>
    <text class="cls-1" transform="translate(64.33 79.47) rotate(157.51)"><tspan x="0" y="0">T</tspan></text>
    <text class="cls-1" transform="translate(51.9 83.51) rotate(178.19)"><tspan x="0" y="0">R</tspan></text>
    <text class="cls-1" transform="translate(38.57 83) rotate(-159.67)"><tspan x="0" y="0">O</tspan></text>
    <text class="cls-1" transform="translate(24.95 76.58) rotate(-137.56)"><tspan x="0" y="0">S</tspan></text>
    <text class="cls-1" transform="translate(15.88 66.89) rotate(-116.73)"><tspan x="0" y="0">B</tspan></text>
    <text class="cls-1" transform="translate(10.81 54.43) rotate(-95.8)"><tspan x="0" y="0">E</tspan></text>
    <text class="cls-1" transform="translate(10.5 41.19) rotate(-75.13)"><tspan x="0" y="0">R</tspan></text>
    <text class="cls-1" transform="translate(14.85 28.61) rotate(-53.25)"><tspan x="0" y="0">G</tspan></text>
  </g>
</svg>